<!-- icon666.com - MILLIONS OF FREE VECTOR ICONS --><svg id="svg10648" viewBox="0 0 8.4666665 8.4666669" xmlns="http://www.w3.org/2000/svg" xmlns:xlink="http://www.w3.org/1999/xlink" xmlns:svg="http://www.w3.org/2000/svg"><linearGradient id="linearGradient1661"><stop id="stop1657" offset="0" stop-color="#ffca00"></stop><stop id="stop1659" offset="1" stop-color="#ff0"></stop></linearGradient><linearGradient id="linearGradient1647" gradientUnits="userSpaceOnUse" x1="1.02816" x2="1.02816" xlink:href="#linearGradient1661" y1="9.71838" y2="22.60062"></linearGradient><linearGradient id="linearGradient1655" gradientUnits="userSpaceOnUse" x1="13.67982" x2="13.67982" xlink:href="#linearGradient1661" y1="21.78414" y2="9.04932"></linearGradient><linearGradient id="linearGradient1693" gradientTransform="matrix(1.215 0 0 1.213 -1.343 -1.041)" gradientUnits="userSpaceOnUse" x1="7" x2="6.445" y1="5.883" y2="3.644"><stop id="stop1687" offset="0" stop-color="#ff0"></stop><stop id="stop1689" offset="1" stop-color="#ffcb00"></stop></linearGradient><g id="layer1"><path id="path5961" d="m4.2147814.52950554a.26460981.26460981 0 0 0 -.162109.0703125l-3.43945305 3.17382806a.26460981.26460981 0 0 0 -.083984.1953125v3.7050781a.26460981.26460981 0 0 0 .263671.2636719h2.37890705a.26460981.26460981 0 0 0 .265625-.2636719l.002-2.3828125h1.58789l.002 2.3828125a.26460981.26460981 0 0 0 .263578.2636719h2.378907a.26460981.26460981 0 0 0 .265625-.2636719v-3.7050781a.26460981.26460981 0 0 0 -.085938-.1953125l-3.439453-3.17382806a.26460981.26460981 0 0 0 -.197266-.0703125zm.01758.62499996 3.175782 2.9296875v3.3242187h-1.84961l-.002-2.3808593a.26460981.26460981 0 0 0 -.265625-.265625h-2.117187a.26460981.26460981 0 0 0 -.263672.265625l-.002 2.3808593h-1.84961v-3.3242187z" font-variant-ligatures="normal" font-variant-position="normal" font-variant-caps="normal" font-variant-numeric="normal" font-variant-alternates="normal" font-variant-east-asian="normal" font-feature-settings="normal" font-variation-settings="normal" text-indent="0" text-align="start" text-decoration-line="none" text-decoration-style="solid" text-decoration-color="#000000" text-transform="none" text-orientation="mixed" white-space="normal" shape-padding="0" shape-margin="0" inline-size="0" isolation="auto" mix-blend-mode="normal" solid-color="#000000" solid-opacity="1" vector-effect="none"></path></g></svg>